<?xml version='1.0' encoding='utf-8'?>
<svg baseProfile="full" height="600px" version="1.1" viewBox="-120.6 -120.6 1441.2 1441.2" xmlns="http://www.w3.org/2000/svg" xmlns:ev="http://www.w3.org/2000/svg" xmlns:xlink="http://www.w3.org/2000/svg"><path d="M 0,1152 L 96,1152  L 96,1200  L 0,1200 z" fill="none" id="1" stroke="#000000" stroke-width="1.2" /><path d="M 0,0 L 96,0  L 96,48  L 0,48 z" fill="none" id="2" stroke="#000000" stroke-width="1.2" /><path d="M 96,1152 L 192,1152  L 192,1200  L 96,1200 z" fill="none" id="3" stroke="#000000" stroke-width="1.2" /><path d="M 96,0 L 192,0  L 192,48  L 96,48 z" fill="none" id="4" stroke="#000000" stroke-width="1.2" /><path d="M 192,1152 L 288,1152  L 288,1200  L 192,1200 z" fill="none" id="5" stroke="#000000" stroke-width="1.2" /><path d="M 192,0 L 288,0  L 288,48  L 192,48 z" fill="none" id="6" stroke="#000000" stroke-width="1.2" /><path d="M 288,1152 L 384,1152  L 384,1200  L 288,1200 z" fill="none" id="7" stroke="#000000" stroke-width="1.2" /><path d="M 288,0 L 384,0  L 384,48  L 288,48 z" fill="none" id="8" stroke="#000000" stroke-width="1.2" /><path d="M 384,1152 L 480,1152  L 480,1200  L 384,1200 z" fill="none" id="9" stroke="#000000" stroke-width="1.2" /><path d="M 384,0 L 480,0  L 480,48  L 384,48 z" fill="none" id="10" stroke="#000000" stroke-width="1.2" /><path d="M 480,1152 L 576,1152  L 576,1200  L 480,1200 z" fill="none" id="11" stroke="#000000" stroke-width="1.2" /><path d="M 480,0 L 576,0  L 576,48  L 480,48 z" fill="none" id="12" stroke="#000000" stroke-width="1.2" /><path d="M 0,1128 L 240,1128  L 240,1152  L 0,1152 z" fill="none" id="13" stroke="#000000" stroke-width="1.2" /><path d="M 0,1080 L 48,1080  L 48,1128  L 0,1128 z" fill="none" id="14" stroke="#000000" stroke-width="1.2" /><path d="M 0,1032 L 48,1032  L 48,1080  L 0,1080 z" fill="none" id="15" stroke="#000000" stroke-width="1.2" /><path d="M 48,1080 L 96,1080  L 96,1128  L 48,1128 z" fill="none" id="16" stroke="#000000" stroke-width="1.2" /><path d="M 48,1032 L 96,1032  L 96,1080  L 48,1080 z" fill="none" id="17" stroke="#000000" stroke-width="1.2" /><path d="M 96,1080 L 144,1080  L 144,1128  L 96,1128 z" fill="none" id="18" stroke="#000000" stroke-width="1.2" /><path d="M 96,1032 L 144,1032  L 144,1080  L 96,1080 z" fill="none" id="19" stroke="#000000" stroke-width="1.2" /><path d="M 144,1080 L 192,1080  L 192,1128  L 144,1128 z" fill="none" id="20" stroke="#000000" stroke-width="1.2" /><path d="M 144,1032 L 192,1032  L 192,1080  L 144,1080 z" fill="none" id="21" stroke="#000000" stroke-width="1.2" /><path d="M 192,1080 L 240,1080  L 240,1128  L 192,1128 z" fill="none" id="22" stroke="#000000" stroke-width="1.2" /><path d="M 192,1032 L 240,1032  L 240,1080  L 192,1080 z" fill="none" id="23" stroke="#000000" stroke-width="1.2" /><path d="M 288,1128 L 528,1128  L 528,1152  L 288,1152 z" fill="none" id="24" stroke="#000000" stroke-width="1.2" /><path d="M 288,1080 L 336,1080  L 336,1128  L 288,1128 z" fill="none" id="25" stroke="#000000" stroke-width="1.2" /><path d="M 288,1032 L 336,1032  L 336,1080  L 288,1080 z" fill="none" id="26" stroke="#000000" stroke-width="1.2" /><path d="M 336,1080 L 384,1080  L 384,1128  L 336,1128 z" fill="none" id="27" stroke="#000000" stroke-width="1.2" /><path d="M 336,1032 L 384,1032  L 384,1080  L 336,1080 z" fill="none" id="28" stroke="#000000" stroke-width="1.2" /><path d="M 384,1080 L 432,1080  L 432,1128  L 384,1128 z" fill="none" id="29" stroke="#000000" stroke-width="1.2" /><path d="M 384,1032 L 432,1032  L 432,1080  L 384,1080 z" fill="none" id="30" stroke="#000000" stroke-width="1.2" /><path d="M 432,1080 L 480,1080  L 480,1128  L 432,1128 z" fill="none" id="31" stroke="#000000" stroke-width="1.2" /><path d="M 432,1032 L 480,1032  L 480,1080  L 432,1080 z" fill="none" id="32" stroke="#000000" stroke-width="1.2" /><path d="M 480,1080 L 528,1080  L 528,1128  L 480,1128 z" fill="none" id="33" stroke="#000000" stroke-width="1.2" /><path d="M 480,1032 L 528,1032  L 528,1080  L 480,1080 z" fill="none" id="34" stroke="#000000" stroke-width="1.2" /><path d="M 0,1008 L 240,1008  L 240,1032  L 0,1032 z" fill="none" id="35" stroke="#000000" stroke-width="1.2" /><path d="M 0,960 L 48,960  L 48,1008  L 0,1008 z" fill="none" id="36" stroke="#000000" stroke-width="1.2" /><path d="M 0,912 L 48,912  L 48,960  L 0,960 z" fill="none" id="37" stroke="#000000" stroke-width="1.2" /><path d="M 48,960 L 96,960  L 96,1008  L 48,1008 z" fill="none" id="38" stroke="#000000" stroke-width="1.2" /><path d="M 48,912 L 96,912  L 96,960  L 48,960 z" fill="none" id="39" stroke="#000000" stroke-width="1.2" /><path d="M 96,960 L 144,960  L 144,1008  L 96,1008 z" fill="none" id="40" stroke="#000000" stroke-width="1.2" /><path d="M 96,912 L 144,912  L 144,960  L 96,960 z" fill="none" id="41" stroke="#000000" stroke-width="1.2" /><path d="M 144,960 L 192,960  L 192,1008  L 144,1008 z" fill="none" id="42" stroke="#000000" stroke-width="1.2" /><path d="M 144,912 L 192,912  L 192,960  L 144,960 z" fill="none" id="43" stroke="#000000" stroke-width="1.2" /><path d="M 192,960 L 240,960  L 240,1008  L 192,1008 z" fill="none" id="44" stroke="#000000" stroke-width="1.2" /><path d="M 192,912 L 240,912  L 240,960  L 192,960 z" fill="none" id="45" stroke="#000000" stroke-width="1.2" /><path d="M 288,1008 L 528,1008  L 528,1032  L 288,1032 z" fill="none" id="46" stroke="#000000" stroke-width="1.2" /><path d="M 288,960 L 336,960  L 336,1008  L 288,1008 z" fill="none" id="47" stroke="#000000" stroke-width="1.2" /><path d="M 288,912 L 336,912  L 336,960  L 288,960 z" fill="none" id="48" stroke="#000000" stroke-width="1.2" /><path d="M 336,960 L 384,960  L 384,1008  L 336,1008 z" fill="none" id="49" stroke="#000000" stroke-width="1.2" /><path d="M 336,912 L 384,912  L 384,960  L 336,960 z" fill="none" id="50" stroke="#000000" stroke-width="1.2" /><path d="M 384,960 L 432,960  L 432,1008  L 384,1008 z" fill="none" id="51" stroke="#000000" stroke-width="1.2" /><path d="M 384,912 L 432,912  L 432,960  L 384,960 z" fill="none" id="52" stroke="#000000" stroke-width="1.2" /><path d="M 432,960 L 480,960  L 480,1008  L 432,1008 z" fill="none" id="53" stroke="#000000" stroke-width="1.2" /><path d="M 432,912 L 480,912  L 480,960  L 432,960 z" fill="none" id="54" stroke="#000000" stroke-width="1.2" /><path d="M 480,960 L 528,960  L 528,1008  L 480,1008 z" fill="none" id="55" stroke="#000000" stroke-width="1.2" /><path d="M 480,912 L 528,912  L 528,960  L 480,960 z" fill="none" id="56" stroke="#000000" stroke-width="1.2" /><path d="M 0,888 L 240,888  L 240,912  L 0,912 z" fill="none" id="57" stroke="#000000" stroke-width="1.2" /><path d="M 0,840 L 48,840  L 48,888  L 0,888 z" fill="none" id="58" stroke="#000000" stroke-width="1.2" /><path d="M 0,792 L 48,792  L 48,840  L 0,840 z" fill="none" id="59" stroke="#000000" stroke-width="1.2" /><path d="M 48,840 L 96,840  L 96,888  L 48,888 z" fill="none" id="60" stroke="#000000" stroke-width="1.2" /><path d="M 48,792 L 96,792  L 96,840  L 48,840 z" fill="none" id="61" stroke="#000000" stroke-width="1.2" /><path d="M 96,840 L 144,840  L 144,888  L 96,888 z" fill="none" id="62" stroke="#000000" stroke-width="1.2" /><path d="M 96,792 L 144,792  L 144,840  L 96,840 z" fill="none" id="63" stroke="#000000" stroke-width="1.2" /><path d="M 144,840 L 192,840  L 192,888  L 144,888 z" fill="none" id="64" stroke="#000000" stroke-width="1.2" /><path d="M 144,792 L 192,792  L 192,840  L 144,840 z" fill="none" id="65" stroke="#000000" stroke-width="1.2" /><path d="M 192,840 L 240,840  L 240,888  L 192,888 z" fill="none" id="66" stroke="#000000" stroke-width="1.2" /><path d="M 192,792 L 240,792  L 240,840  L 192,840 z" fill="none" id="67" stroke="#000000" stroke-width="1.2" /><path d="M 288,888 L 528,888  L 528,912  L 288,912 z" fill="none" id="68" stroke="#000000" stroke-width="1.2" /><path d="M 288,840 L 336,840  L 336,888  L 288,888 z" fill="none" id="69" stroke="#000000" stroke-width="1.2" /><path d="M 288,792 L 336,792  L 336,840  L 288,840 z" fill="none" id="70" stroke="#000000" stroke-width="1.2" /><path d="M 336,840 L 384,840  L 384,888  L 336,888 z" fill="none" id="71" stroke="#000000" stroke-width="1.2" /><path d="M 336,792 L 384,792  L 384,840  L 336,840 z" fill="none" id="72" stroke="#000000" stroke-width="1.2" /><path d="M 384,840 L 432,840  L 432,888  L 384,888 z" fill="none" id="73" stroke="#000000" stroke-width="1.2" /><path d="M 384,792 L 432,792  L 432,840  L 384,840 z" fill="none" id="74" stroke="#000000" stroke-width="1.2" /><path d="M 432,840 L 480,840  L 480,888  L 432,888 z" fill="none" id="75" stroke="#000000" stroke-width="1.2" /><path d="M 432,792 L 480,792  L 480,840  L 432,840 z" fill="none" id="76" stroke="#000000" stroke-width="1.2" /><path d="M 480,840 L 528,840  L 528,888  L 480,888 z" fill="none" id="77" stroke="#000000" stroke-width="1.2" /><path d="M 480,792 L 528,792  L 528,840  L 480,840 z" fill="none" id="78" stroke="#000000" stroke-width="1.2" /><path d="M 0,768 L 240,768  L 240,792  L 0,792 z" fill="none" id="79" stroke="#000000" stroke-width="1.2" /><path d="M 0,720 L 48,720  L 48,768  L 0,768 z" fill="none" id="80" stroke="#000000" stroke-width="1.2" /><path d="M 0,672 L 48,672  L 48,720  L 0,720 z" fill="none" id="81" stroke="#000000" stroke-width="1.2" /><path d="M 48,720 L 96,720  L 96,768  L 48,768 z" fill="none" id="82" stroke="#000000" stroke-width="1.2" /><path d="M 48,672 L 96,672  L 96,720  L 48,720 z" fill="none" id="83" stroke="#000000" stroke-width="1.2" /><path d="M 96,720 L 144,720  L 144,768  L 96,768 z" fill="none" id="84" stroke="#000000" stroke-width="1.2" /><path d="M 96,672 L 144,672  L 144,720  L 96,720 z" fill="none" id="85" stroke="#000000" stroke-width="1.2" /><path d="M 144,720 L 192,720  L 192,768  L 144,768 z" fill="none" id="86" stroke="#000000" stroke-width="1.2" /><path d="M 144,672 L 192,672  L 192,720  L 144,720 z" fill="none" id="87" stroke="#000000" stroke-width="1.2" /><path d="M 192,720 L 240,720  L 240,768  L 192,768 z" fill="none" id="88" stroke="#000000" stroke-width="1.2" /><path d="M 192,672 L 240,672  L 240,720  L 192,720 z" fill="none" id="89" stroke="#000000" stroke-width="1.2" /><path d="M 288,768 L 528,768  L 528,792  L 288,792 z" fill="none" id="90" stroke="#000000" stroke-width="1.2" /><path d="M 288,720 L 336,720  L 336,768  L 288,768 z" fill="none" id="91" stroke="#000000" stroke-width="1.2" /><path d="M 288,672 L 336,672  L 336,720  L 288,720 z" fill="none" id="92" stroke="#000000" stroke-width="1.2" /><path d="M 336,720 L 384,720  L 384,768  L 336,768 z" fill="none" id="93" stroke="#000000" stroke-width="1.2" /><path d="M 336,672 L 384,672  L 384,720  L 336,720 z" fill="none" id="94" stroke="#000000" stroke-width="1.2" /><path d="M 384,720 L 432,720  L 432,768  L 384,768 z" fill="none" id="95" stroke="#000000" stroke-width="1.2" /><path d="M 384,672 L 432,672  L 432,720  L 384,720 z" fill="none" id="96" stroke="#000000" stroke-width="1.2" /><path d="M 432,720 L 480,720  L 480,768  L 432,768 z" fill="none" id="97" stroke="#000000" stroke-width="1.2" /><path d="M 432,672 L 480,672  L 480,720  L 432,720 z" fill="none" id="98" stroke="#000000" stroke-width="1.2" /><path d="M 480,720 L 528,720  L 528,768  L 480,768 z" fill="none" id="99" stroke="#000000" stroke-width="1.2" /><path d="M 480,672 L 528,672  L 528,720  L 480,720 z" fill="none" id="100" stroke="#000000" stroke-width="1.2" /><path d="M 0,552 L 240,552  L 240,576  L 0,576 z" fill="none" id="101" stroke="#000000" stroke-width="1.2" /><path d="M 0,504 L 48,504  L 48,552  L 0,552 z" fill="none" id="102" stroke="#000000" stroke-width="1.2" /><path d="M 0,456 L 48,456  L 48,504  L 0,504 z" fill="none" id="103" stroke="#000000" stroke-width="1.2" /><path d="M 48,504 L 96,504  L 96,552  L 48,552 z" fill="none" id="104" stroke="#000000" stroke-width="1.2" /><path d="M 48,456 L 96,456  L 96,504  L 48,504 z" fill="none" id="105" stroke="#000000" stroke-width="1.2" /><path d="M 96,504 L 144,504  L 144,552  L 96,552 z" fill="none" id="106" stroke="#000000" stroke-width="1.2" /><path d="M 96,456 L 144,456  L 144,504  L 96,504 z" fill="none" id="107" stroke="#000000" stroke-width="1.2" /><path d="M 144,504 L 192,504  L 192,552  L 144,552 z" fill="none" id="108" stroke="#000000" stroke-width="1.2" /><path d="M 144,456 L 192,456  L 192,504  L 144,504 z" fill="none" id="109" stroke="#000000" stroke-width="1.2" /><path d="M 192,504 L 240,504  L 240,552  L 192,552 z" fill="none" id="110" stroke="#000000" stroke-width="1.2" /><path d="M 192,456 L 240,456  L 240,504  L 192,504 z" fill="none" id="111" stroke="#000000" stroke-width="1.2" /><path d="M 288,552 L 528,552  L 528,576  L 288,576 z" fill="none" id="112" stroke="#000000" stroke-width="1.2" /><path d="M 288,504 L 336,504  L 336,552  L 288,552 z" fill="none" id="113" stroke="#000000" stroke-width="1.2" /><path d="M 288,456 L 336,456  L 336,504  L 288,504 z" fill="none" id="114" stroke="#000000" stroke-width="1.2" /><path d="M 336,504 L 384,504  L 384,552  L 336,552 z" fill="none" id="115" stroke="#000000" stroke-width="1.2" /><path d="M 336,456 L 384,456  L 384,504  L 336,504 z" fill="none" id="116" stroke="#000000" stroke-width="1.2" /><path d="M 384,504 L 432,504  L 432,552  L 384,552 z" fill="none" id="117" stroke="#000000" stroke-width="1.2" /><path d="M 384,456 L 432,456  L 432,504  L 384,504 z" fill="none" id="118" stroke="#000000" stroke-width="1.2" /><path d="M 432,504 L 480,504  L 480,552  L 432,552 z" fill="none" id="119" stroke="#000000" stroke-width="1.2" /><path d="M 432,456 L 480,456  L 480,504  L 432,504 z" fill="none" id="120" stroke="#000000" stroke-width="1.2" /><path d="M 480,504 L 528,504  L 528,552  L 480,552 z" fill="none" id="121" stroke="#000000" stroke-width="1.2" /><path d="M 480,456 L 528,456  L 528,504  L 480,504 z" fill="none" id="122" stroke="#000000" stroke-width="1.2" /><path d="M 0,432 L 240,432  L 240,456  L 0,456 z" fill="none" id="123" stroke="#000000" stroke-width="1.2" /><path d="M 0,384 L 48,384  L 48,432  L 0,432 z" fill="none" id="124" stroke="#000000" stroke-width="1.2" /><path d="M 0,336 L 48,336  L 48,384  L 0,384 z" fill="none" id="125" stroke="#000000" stroke-width="1.2" /><path d="M 48,384 L 96,384  L 96,432  L 48,432 z" fill="none" id="126" stroke="#000000" stroke-width="1.2" /><path d="M 48,336 L 96,336  L 96,384  L 48,384 z" fill="none" id="127" stroke="#000000" stroke-width="1.2" /><path d="M 96,384 L 144,384  L 144,432  L 96,432 z" fill="none" id="128" stroke="#000000" stroke-width="1.2" /><path d="M 96,336 L 144,336  L 144,384  L 96,384 z" fill="none" id="129" stroke="#000000" stroke-width="1.2" /><path d="M 144,384 L 192,384  L 192,432  L 144,432 z" fill="none" id="130" stroke="#000000" stroke-width="1.2" /><path d="M 144,336 L 192,336  L 192,384  L 144,384 z" fill="none" id="131" stroke="#000000" stroke-width="1.2" /><path d="M 192,384 L 240,384  L 240,432  L 192,432 z" fill="none" id="132" stroke="#000000" stroke-width="1.2" /><path d="M 192,336 L 240,336  L 240,384  L 192,384 z" fill="none" id="133" stroke="#000000" stroke-width="1.2" /><path d="M 288,432 L 528,432  L 528,456  L 288,456 z" fill="none" id="134" stroke="#000000" stroke-width="1.2" /><path d="M 288,384 L 336,384  L 336,432  L 288,432 z" fill="none" id="135" stroke="#000000" stroke-width="1.2" /><path d="M 288,336 L 336,336  L 336,384  L 288,384 z" fill="none" id="136" stroke="#000000" stroke-width="1.2" /><path d="M 336,384 L 384,384  L 384,432  L 336,432 z" fill="none" id="137" stroke="#000000" stroke-width="1.2" /><path d="M 336,336 L 384,336  L 384,384  L 336,384 z" fill="none" id="138" stroke="#000000" stroke-width="1.2" /><path d="M 384,384 L 432,384  L 432,432  L 384,432 z" fill="none" id="139" stroke="#000000" stroke-width="1.2" /><path d="M 384,336 L 432,336  L 432,384  L 384,384 z" fill="none" id="140" stroke="#000000" stroke-width="1.2" /><path d="M 432,384 L 480,384  L 480,432  L 432,432 z" fill="none" id="141" stroke="#000000" stroke-width="1.2" /><path d="M 432,336 L 480,336  L 480,384  L 432,384 z" fill="none" id="142" stroke="#000000" stroke-width="1.2" /><path d="M 480,384 L 528,384  L 528,432  L 480,432 z" fill="none" id="143" stroke="#000000" stroke-width="1.2" /><path d="M 480,336 L 528,336  L 528,384  L 480,384 z" fill="none" id="144" stroke="#000000" stroke-width="1.2" /><path d="M 0,312 L 240,312  L 240,336  L 0,336 z" fill="none" id="145" stroke="#000000" stroke-width="1.2" /><path d="M 0,264 L 48,264  L 48,312  L 0,312 z" fill="none" id="146" stroke="#000000" stroke-width="1.2" /><path d="M 0,216 L 48,216  L 48,264  L 0,264 z" fill="none" id="147" stroke="#000000" stroke-width="1.2" /><path d="M 48,264 L 96,264  L 96,312  L 48,312 z" fill="none" id="148" stroke="#000000" stroke-width="1.2" /><path d="M 48,216 L 96,216  L 96,264  L 48,264 z" fill="none" id="149" stroke="#000000" stroke-width="1.2" /><path d="M 96,264 L 144,264  L 144,312  L 96,312 z" fill="none" id="150" stroke="#000000" stroke-width="1.2" /><path d="M 96,216 L 144,216  L 144,264  L 96,264 z" fill="none" id="151" stroke="#000000" stroke-width="1.2" /><path d="M 144,264 L 192,264  L 192,312  L 144,312 z" fill="none" id="152" stroke="#000000" stroke-width="1.2" /><path d="M 144,216 L 192,216  L 192,264  L 144,264 z" fill="none" id="153" stroke="#000000" stroke-width="1.2" /><path d="M 192,264 L 240,264  L 240,312  L 192,312 z" fill="none" id="154" stroke="#000000" stroke-width="1.2" /><path d="M 192,216 L 240,216  L 240,264  L 192,264 z" fill="none" id="155" stroke="#000000" stroke-width="1.2" /><path d="M 288,312 L 528,312  L 528,336  L 288,336 z" fill="none" id="156" stroke="#000000" stroke-width="1.2" /><path d="M 288,264 L 336,264  L 336,312  L 288,312 z" fill="none" id="157" stroke="#000000" stroke-width="1.2" /><path d="M 288,216 L 336,216  L 336,264  L 288,264 z" fill="none" id="158" stroke="#000000" stroke-width="1.2" /><path d="M 336,264 L 384,264  L 384,312  L 336,312 z" fill="none" id="159" stroke="#000000" stroke-width="1.2" /><path d="M 336,216 L 384,216  L 384,264  L 336,264 z" fill="none" id="160" stroke="#000000" stroke-width="1.2" /><path d="M 384,264 L 432,264  L 432,312  L 384,312 z" fill="none" id="161" stroke="#000000" stroke-width="1.2" /><path d="M 384,216 L 432,216  L 432,264  L 384,264 z" fill="none" id="162" stroke="#000000" stroke-width="1.2" /><path d="M 432,264 L 480,264  L 480,312  L 432,312 z" fill="none" id="163" stroke="#000000" stroke-width="1.2" /><path d="M 432,216 L 480,216  L 480,264  L 432,264 z" fill="none" id="164" stroke="#000000" stroke-width="1.2" /><path d="M 480,264 L 528,264  L 528,312  L 480,312 z" fill="none" id="165" stroke="#000000" stroke-width="1.2" /><path d="M 480,216 L 528,216  L 528,264  L 480,264 z" fill="none" id="166" stroke="#000000" stroke-width="1.2" /><path d="M 0,192 L 240,192  L 240,216  L 0,216 z" fill="none" id="167" stroke="#000000" stroke-width="1.2" /><path d="M 0,144 L 48,144  L 48,192  L 0,192 z" fill="none" id="168" stroke="#000000" stroke-width="1.2" /><path d="M 0,96 L 48,96  L 48,144  L 0,144 z" fill="none" id="169" stroke="#000000" stroke-width="1.2" /><path d="M 48,144 L 96,144  L 96,192  L 48,192 z" fill="none" id="170" stroke="#000000" stroke-width="1.2" /><path d="M 48,96 L 96,96  L 96,144  L 48,144 z" fill="none" id="171" stroke="#000000" stroke-width="1.2" /><path d="M 96,144 L 144,144  L 144,192  L 96,192 z" fill="none" id="172" stroke="#000000" stroke-width="1.2" /><path d="M 96,96 L 144,96  L 144,144  L 96,144 z" fill="none" id="173" stroke="#000000" stroke-width="1.2" /><path d="M 144,144 L 192,144  L 192,192  L 144,192 z" fill="none" id="174" stroke="#000000" stroke-width="1.2" /><path d="M 144,96 L 192,96  L 192,144  L 144,144 z" fill="none" id="175" stroke="#000000" stroke-width="1.2" /><path d="M 192,144 L 240,144  L 240,192  L 192,192 z" fill="none" id="176" stroke="#000000" stroke-width="1.2" /><path d="M 192,96 L 240,96  L 240,144  L 192,144 z" fill="none" id="177" stroke="#000000" stroke-width="1.2" /><path d="M 288,192 L 528,192  L 528,216  L 288,216 z" fill="none" id="178" stroke="#000000" stroke-width="1.2" /><path d="M 288,144 L 336,144  L 336,192  L 288,192 z" fill="none" id="179" stroke="#000000" stroke-width="1.2" /><path d="M 288,96 L 336,96  L 336,144  L 288,144 z" fill="none" id="180" stroke="#000000" stroke-width="1.2" /><path d="M 336,144 L 384,144  L 384,192  L 336,192 z" fill="none" id="181" stroke="#000000" stroke-width="1.2" /><path d="M 336,96 L 384,96  L 384,144  L 336,144 z" fill="none" id="182" stroke="#000000" stroke-width="1.2" /><path d="M 384,144 L 432,144  L 432,192  L 384,192 z" fill="none" id="183" stroke="#000000" stroke-width="1.2" /><path d="M 384,96 L 432,96  L 432,144  L 384,144 z" fill="none" id="184" stroke="#000000" stroke-width="1.2" /><path d="M 432,144 L 480,144  L 480,192  L 432,192 z" fill="none" id="185" stroke="#000000" stroke-width="1.2" /><path d="M 432,96 L 480,96  L 480,144  L 432,144 z" fill="none" id="186" stroke="#000000" stroke-width="1.2" /><path d="M 480,144 L 528,144  L 528,192  L 480,192 z" fill="none" id="187" stroke="#000000" stroke-width="1.2" /><path d="M 480,96 L 528,96  L 528,144  L 480,144 z" fill="none" id="188" stroke="#000000" stroke-width="1.2" /><path d="M 0,624 L 576,624  L 576,672  L 0,672 z" fill="none" id="189" stroke="#000000" stroke-width="1.2" /><path d="M 0,48 L 576,48  L 576,96  L 0,96 z" fill="none" id="190" stroke="#000000" stroke-width="1.2" /><path d="M 240,96 L 288,96  L 288,576  L 240,576 z" fill="none" id="191" stroke="#000000" stroke-width="1.2" /><path d="M 528,96 L 576,96  L 576,576  L 528,576 z" fill="none" id="192" stroke="#000000" stroke-width="1.2" /><path d="M 240,672 L 288,672  L 288,1152  L 240,1152 z" fill="none" id="193" stroke="#000000" stroke-width="1.2" /><path d="M 528,672 L 576,672  L 576,1152  L 528,1152 z" fill="none" id="194" stroke="#000000" stroke-width="1.2" /><path d="M 624,0 L 1200,0  L 1200,276  L 624,276 z" fill="none" id="195" stroke="#000000" stroke-width="1.2" /><path d="M 912,912 L 1200,912  L 1200,1200  L 912,1200 z" fill="none" id="196" stroke="#000000" stroke-width="1.2" /><path d="M 624,912 L 912,912  L 912,1200  L 624,1200 z" fill="none" id="197" stroke="#000000" stroke-width="1.2" /><path d="M 624,276 L 1200,276  L 1200,324  L 624,324 z" fill="none" id="198" stroke="#000000" stroke-width="1.2" /><path d="M 624,324 L 720,324  L 720,576  L 624,576 z" fill="none" id="199" stroke="#000000" stroke-width="1.2" /><path d="M 720,324 L 816,324  L 816,576  L 720,576 z" fill="none" id="200" stroke="#000000" stroke-width="1.2" /><path d="M 816,324 L 912,324  L 912,576  L 816,576 z" fill="none" id="201" stroke="#000000" stroke-width="1.2" /><path d="M 912,324 L 1008,324  L 1008,576  L 912,576 z" fill="none" id="202" stroke="#000000" stroke-width="1.2" /><path d="M 1008,324 L 1104,324  L 1104,576  L 1008,576 z" fill="none" id="203" stroke="#000000" stroke-width="1.2" /><path d="M 1104,324 L 1200,324  L 1200,576  L 1104,576 z" fill="none" id="204" stroke="#000000" stroke-width="1.2" /><path d="M 624,576 L 1200,576  L 1200,624  L 624,624 z" fill="none" id="205" stroke="#000000" stroke-width="1.2" /><path d="M 624,624 L 720,624  L 720,876  L 624,876 z" fill="none" id="206" stroke="#000000" stroke-width="1.2" /><path d="M 720,624 L 816,624  L 816,876  L 720,876 z" fill="none" id="207" stroke="#000000" stroke-width="1.2" /><path d="M 816,624 L 912,624  L 912,876  L 816,876 z" fill="none" id="208" stroke="#000000" stroke-width="1.2" /><path d="M 912,624 L 1008,624  L 1008,876  L 912,876 z" fill="none" id="209" stroke="#000000" stroke-width="1.2" /><path d="M 1008,624 L 1104,624  L 1104,876  L 1008,876 z" fill="none" id="210" stroke="#000000" stroke-width="1.2" /><path d="M 1104,624 L 1200,624  L 1200,876  L 1104,876 z" fill="none" id="211" stroke="#000000" stroke-width="1.2" /><path d="M 576,0 L 624,0  L 624,1200  L 576,1200 z" fill="none" id="212" stroke="#000000" stroke-width="1.2" /><path d="M 0,576 L 576,576  L 576,624  L 0,624 z" fill="none" id="213" stroke="#000000" stroke-width="1.2" /><path d="M 624,876 L 1200,876  L 1200,912  L 624,912 z" fill="none" id="214" stroke="#000000" stroke-width="1.2" /></svg>