<?xml version="1.0" encoding="UTF-8" standalone="no"?>
<svg
   xmlns:dc="http://purl.org/dc/elements/1.1/"
   xmlns:cc="http://creativecommons.org/ns#"
   xmlns:rdf="http://www.w3.org/1999/02/22-rdf-syntax-ns#"
   xmlns:svg="http://www.w3.org/2000/svg"
   xmlns="http://www.w3.org/2000/svg"
   xmlns:sodipodi="http://sodipodi.sourceforge.net/DTD/sodipodi-0.dtd"
   xmlns:inkscape="http://www.inkscape.org/namespaces/inkscape"
   inkscape:version="1.0 (4035a4fb49, 2020-05-01)"
   sodipodi:docname="TF1.svg"
   id="svg224"
   viewBox="-120.6 -120.6 1441.2 1441.2"
   version="1.1"
   height="600px">
  <metadata
     id="metadata230">
    <rdf:RDF>
      <cc:Work
         rdf:about="">
        <dc:format>image/svg+xml</dc:format>
        <dc:type
           rdf:resource="http://purl.org/dc/dcmitype/StillImage" />
      </cc:Work>
    </rdf:RDF>
  </metadata>
  <defs
     id="defs228" />
  <sodipodi:namedview
     inkscape:current-layer="svg224"
     inkscape:window-maximized="1"
     inkscape:window-y="-8"
     inkscape:window-x="-8"
     inkscape:cy="285.10069"
     inkscape:cx="554.29464"
     inkscape:zoom="6.2487593"
     inkscape:snap-global="false"
     showgrid="false"
     id="namedview226"
     inkscape:window-height="1058"
     inkscape:window-width="1920"
     inkscape:pageshadow="2"
     inkscape:pageopacity="0"
     guidetolerance="10"
     gridtolerance="10"
     objecttolerance="10"
     borderopacity="1"
     bordercolor="#666666"
     pagecolor="#ffffff" />
  <path
     stroke-width="1.2"
     stroke="#000000"
     id="1"
     fill="none"
     d="M 0,1152 L 96,1152  L 96,1200  L 0,1200 z" />
  <path
     stroke-width="1.2"
     stroke="#000000"
     id="2"
     fill="none"
     d="M 0,0 L 96,0  L 96,48  L 0,48 z" />
  <path
     stroke-width="1.2"
     stroke="#000000"
     id="3"
     fill="none"
     d="M 96,1152 L 192,1152  L 192,1200  L 96,1200 z" />
  <path
     stroke-width="1.2"
     stroke="#000000"
     id="4"
     fill="none"
     d="M 96,0 L 192,0  L 192,48  L 96,48 z" />
  <path
     stroke-width="1.2"
     stroke="#000000"
     id="5"
     fill="none"
     d="M 192,1152 L 288,1152  L 288,1200  L 192,1200 z" />
  <path
     stroke-width="1.2"
     stroke="#000000"
     id="6"
     fill="none"
     d="M 192,0 L 288,0  L 288,48  L 192,48 z" />
  <path
     stroke-width="1.2"
     stroke="#000000"
     id="7"
     fill="none"
     d="M 288,1152 L 384,1152  L 384,1200  L 288,1200 z" />
  <path
     stroke-width="1.2"
     stroke="#000000"
     id="8"
     fill="none"
     d="M 288,0 L 384,0  L 384,48  L 288,48 z" />
  <path
     stroke-width="1.2"
     stroke="#000000"
     id="9"
     fill="none"
     d="M 384,1152 L 480,1152  L 480,1200  L 384,1200 z" />
  <path
     stroke-width="1.2"
     stroke="#000000"
     id="10"
     fill="none"
     d="M 384,0 L 480,0  L 480,48  L 384,48 z" />
  <path
     stroke-width="1.2"
     stroke="#000000"
     id="11"
     fill="none"
     d="M 480,1152 L 576,1152  L 576,1200  L 480,1200 z" />
  <path
     stroke-width="1.2"
     stroke="#000000"
     id="12"
     fill="none"
     d="M 480,0 L 576,0  L 576,48  L 480,48 z" />
  <path
     stroke-width="1.2"
     stroke="#000000"
     id="13"
     fill="none"
     d="M 0,1128 L 240,1128  L 240,1152  L 0,1152 z" />
  <path
     stroke-width="1.2"
     stroke="#000000"
     id="14"
     fill="none"
     d="M 0,1080 L 48,1080  L 48,1128  L 0,1128 z" />
  <path
     stroke-width="1.2"
     stroke="#000000"
     id="15"
     fill="none"
     d="M 0,1032 L 48,1032  L 48,1080  L 0,1080 z" />
  <path
     stroke-width="1.2"
     stroke="#000000"
     id="16"
     fill="none"
     d="M 48,1080 L 96,1080  L 96,1128  L 48,1128 z" />
  <path
     stroke-width="1.2"
     stroke="#000000"
     id="17"
     fill="none"
     d="M 48,1032 L 96,1032  L 96,1080  L 48,1080 z" />
  <path
     stroke-width="1.2"
     stroke="#000000"
     id="18"
     fill="none"
     d="M 96,1080 L 144,1080  L 144,1128  L 96,1128 z" />
  <path
     stroke-width="1.2"
     stroke="#000000"
     id="19"
     fill="none"
     d="M 96,1032 L 144,1032  L 144,1080  L 96,1080 z" />
  <path
     stroke-width="1.2"
     stroke="#000000"
     id="20"
     fill="none"
     d="M 144,1080 L 192,1080  L 192,1128  L 144,1128 z" />
  <path
     stroke-width="1.2"
     stroke="#000000"
     id="21"
     fill="none"
     d="M 144,1032 L 192,1032  L 192,1080  L 144,1080 z" />
  <path
     stroke-width="1.2"
     stroke="#000000"
     id="22"
     fill="none"
     d="M 192,1080 L 240,1080  L 240,1128  L 192,1128 z" />
  <path
     stroke-width="1.2"
     stroke="#000000"
     id="23"
     fill="none"
     d="M 192,1032 L 240,1032  L 240,1080  L 192,1080 z" />
  <path
     stroke-width="1.2"
     stroke="#000000"
     id="24"
     fill="none"
     d="M 288,1128 L 528,1128  L 528,1152  L 288,1152 z" />
  <path
     stroke-width="1.2"
     stroke="#000000"
     id="25"
     fill="none"
     d="M 288,1080 L 336,1080  L 336,1128  L 288,1128 z" />
  <path
     stroke-width="1.2"
     stroke="#000000"
     id="26"
     fill="none"
     d="M 288,1032 L 336,1032  L 336,1080  L 288,1080 z" />
  <path
     stroke-width="1.2"
     stroke="#000000"
     id="27"
     fill="none"
     d="M 336,1080 L 384,1080  L 384,1128  L 336,1128 z" />
  <path
     stroke-width="1.2"
     stroke="#000000"
     id="28"
     fill="none"
     d="M 336,1032 L 384,1032  L 384,1080  L 336,1080 z" />
  <path
     stroke-width="1.2"
     stroke="#000000"
     id="29"
     fill="none"
     d="M 384,1080 L 432,1080  L 432,1128  L 384,1128 z" />
  <path
     stroke-width="1.2"
     stroke="#000000"
     id="30"
     fill="none"
     d="M 384,1032 L 432,1032  L 432,1080  L 384,1080 z" />
  <path
     stroke-width="1.2"
     stroke="#000000"
     id="31"
     fill="none"
     d="M 432,1080 L 480,1080  L 480,1128  L 432,1128 z" />
  <path
     stroke-width="1.2"
     stroke="#000000"
     id="32"
     fill="none"
     d="M 432,1032 L 480,1032  L 480,1080  L 432,1080 z" />
  <path
     stroke-width="1.2"
     stroke="#000000"
     id="33"
     fill="none"
     d="M 480,1080 L 528,1080  L 528,1128  L 480,1128 z" />
  <path
     stroke-width="1.2"
     stroke="#000000"
     id="34"
     fill="none"
     d="M 480,1032 L 528,1032  L 528,1080  L 480,1080 z" />
  <path
     stroke-width="1.2"
     stroke="#000000"
     id="35"
     fill="none"
     d="M 0,1008 L 240,1008  L 240,1032  L 0,1032 z" />
  <path
     stroke-width="1.2"
     stroke="#000000"
     id="36"
     fill="none"
     d="M 0,960 L 48,960  L 48,1008  L 0,1008 z" />
  <path
     stroke-width="1.2"
     stroke="#000000"
     id="37"
     fill="none"
     d="M 0,912 L 48,912  L 48,960  L 0,960 z" />
  <path
     stroke-width="1.2"
     stroke="#000000"
     id="38"
     fill="none"
     d="M 48,960 L 96,960  L 96,1008  L 48,1008 z" />
  <path
     stroke-width="1.2"
     stroke="#000000"
     id="39"
     fill="none"
     d="M 48,912 L 96,912  L 96,960  L 48,960 z" />
  <path
     stroke-width="1.2"
     stroke="#000000"
     id="40"
     fill="none"
     d="M 96,960 L 144,960  L 144,1008  L 96,1008 z" />
  <path
     stroke-width="1.2"
     stroke="#000000"
     id="41"
     fill="none"
     d="M 96,912 L 144,912  L 144,960  L 96,960 z" />
  <path
     stroke-width="1.2"
     stroke="#000000"
     id="42"
     fill="none"
     d="M 144,960 L 192,960  L 192,1008  L 144,1008 z" />
  <path
     stroke-width="1.2"
     stroke="#000000"
     id="43"
     fill="none"
     d="M 144,912 L 192,912  L 192,960  L 144,960 z" />
  <path
     stroke-width="1.2"
     stroke="#000000"
     id="44"
     fill="none"
     d="M 192,960 L 240,960  L 240,1008  L 192,1008 z" />
  <path
     stroke-width="1.2"
     stroke="#000000"
     id="45"
     fill="none"
     d="M 192,912 L 240,912  L 240,960  L 192,960 z" />
  <path
     stroke-width="1.2"
     stroke="#000000"
     id="46"
     fill="none"
     d="M 288,1008 L 528,1008  L 528,1032  L 288,1032 z" />
  <path
     stroke-width="1.2"
     stroke="#000000"
     id="47"
     fill="none"
     d="M 288,960 L 336,960  L 336,1008  L 288,1008 z" />
  <path
     stroke-width="1.2"
     stroke="#000000"
     id="48"
     fill="none"
     d="M 288,912 L 336,912  L 336,960  L 288,960 z" />
  <path
     stroke-width="1.2"
     stroke="#000000"
     id="49"
     fill="none"
     d="M 336,960 L 384,960  L 384,1008  L 336,1008 z" />
  <path
     stroke-width="1.2"
     stroke="#000000"
     id="50"
     fill="none"
     d="M 336,912 L 384,912  L 384,960  L 336,960 z" />
  <path
     stroke-width="1.2"
     stroke="#000000"
     id="51"
     fill="none"
     d="M 384,960 L 432,960  L 432,1008  L 384,1008 z" />
  <path
     stroke-width="1.2"
     stroke="#000000"
     id="52"
     fill="none"
     d="M 384,912 L 432,912  L 432,960  L 384,960 z" />
  <path
     stroke-width="1.2"
     stroke="#000000"
     id="53"
     fill="none"
     d="M 432,960 L 480,960  L 480,1008  L 432,1008 z" />
  <path
     stroke-width="1.2"
     stroke="#000000"
     id="54"
     fill="none"
     d="M 432,912 L 480,912  L 480,960  L 432,960 z" />
  <path
     stroke-width="1.2"
     stroke="#000000"
     id="55"
     fill="none"
     d="M 480,960 L 528,960  L 528,1008  L 480,1008 z" />
  <path
     stroke-width="1.2"
     stroke="#000000"
     id="56"
     fill="none"
     d="M 480,912 L 528,912  L 528,960  L 480,960 z" />
  <path
     stroke-width="1.2"
     stroke="#000000"
     id="57"
     fill="none"
     d="M 0,888 L 240,888  L 240,912  L 0,912 z" />
  <path
     stroke-width="1.2"
     stroke="#000000"
     id="58"
     fill="none"
     d="M 0,840 L 48,840  L 48,888  L 0,888 z" />
  <path
     stroke-width="1.2"
     stroke="#000000"
     id="59"
     fill="none"
     d="M 0,792 L 48,792  L 48,840  L 0,840 z" />
  <path
     stroke-width="1.2"
     stroke="#000000"
     id="60"
     fill="none"
     d="M 48,840 L 96,840  L 96,888  L 48,888 z" />
  <path
     stroke-width="1.2"
     stroke="#000000"
     id="61"
     fill="none"
     d="M 48,792 L 96,792  L 96,840  L 48,840 z" />
  <path
     stroke-width="1.2"
     stroke="#000000"
     id="62"
     fill="none"
     d="M 96,840 L 144,840  L 144,888  L 96,888 z" />
  <path
     stroke-width="1.2"
     stroke="#000000"
     id="63"
     fill="none"
     d="M 96,792 L 144,792  L 144,840  L 96,840 z" />
  <path
     stroke-width="1.2"
     stroke="#000000"
     id="64"
     fill="none"
     d="M 144,840 L 192,840  L 192,888  L 144,888 z" />
  <path
     stroke-width="1.2"
     stroke="#000000"
     id="65"
     fill="none"
     d="M 144,792 L 192,792  L 192,840  L 144,840 z" />
  <path
     stroke-width="1.2"
     stroke="#000000"
     id="66"
     fill="none"
     d="M 192,840 L 240,840  L 240,888  L 192,888 z" />
  <path
     stroke-width="1.2"
     stroke="#000000"
     id="67"
     fill="none"
     d="M 192,792 L 240,792  L 240,840  L 192,840 z" />
  <path
     stroke-width="1.2"
     stroke="#000000"
     id="68"
     fill="none"
     d="M 288,888 L 528,888  L 528,912  L 288,912 z" />
  <path
     stroke-width="1.2"
     stroke="#000000"
     id="69"
     fill="none"
     d="M 288,840 L 336,840  L 336,888  L 288,888 z" />
  <path
     stroke-width="1.2"
     stroke="#000000"
     id="70"
     fill="none"
     d="M 288,792 L 336,792  L 336,840  L 288,840 z" />
  <path
     stroke-width="1.2"
     stroke="#000000"
     id="71"
     fill="none"
     d="M 336,840 L 384,840  L 384,888  L 336,888 z" />
  <path
     stroke-width="1.2"
     stroke="#000000"
     id="72"
     fill="none"
     d="M 336,792 L 384,792  L 384,840  L 336,840 z" />
  <path
     stroke-width="1.2"
     stroke="#000000"
     id="73"
     fill="none"
     d="M 384,840 L 432,840  L 432,888  L 384,888 z" />
  <path
     stroke-width="1.2"
     stroke="#000000"
     id="74"
     fill="none"
     d="M 384,792 L 432,792  L 432,840  L 384,840 z" />
  <path
     stroke-width="1.2"
     stroke="#000000"
     id="75"
     fill="none"
     d="M 432,840 L 480,840  L 480,888  L 432,888 z" />
  <path
     stroke-width="1.2"
     stroke="#000000"
     id="76"
     fill="none"
     d="M 432,792 L 480,792  L 480,840  L 432,840 z" />
  <path
     stroke-width="1.2"
     stroke="#000000"
     id="77"
     fill="none"
     d="M 480,840 L 528,840  L 528,888  L 480,888 z" />
  <path
     stroke-width="1.2"
     stroke="#000000"
     id="78"
     fill="none"
     d="M 480,792 L 528,792  L 528,840  L 480,840 z" />
  <path
     stroke-width="1.2"
     stroke="#000000"
     id="79"
     fill="none"
     d="M 0,768 L 240,768  L 240,792  L 0,792 z" />
  <path
     stroke-width="1.2"
     stroke="#000000"
     id="80"
     fill="none"
     d="M 0,720 L 48,720  L 48,768  L 0,768 z" />
  <path
     stroke-width="1.2"
     stroke="#000000"
     id="81"
     fill="none"
     d="M 0,672 L 48,672  L 48,720  L 0,720 z" />
  <path
     stroke-width="1.2"
     stroke="#000000"
     id="82"
     fill="none"
     d="M 48,720 L 96,720  L 96,768  L 48,768 z" />
  <path
     stroke-width="1.2"
     stroke="#000000"
     id="83"
     fill="none"
     d="M 48,672 L 96,672  L 96,720  L 48,720 z" />
  <path
     stroke-width="1.2"
     stroke="#000000"
     id="84"
     fill="none"
     d="M 96,720 L 144,720  L 144,768  L 96,768 z" />
  <path
     stroke-width="1.2"
     stroke="#000000"
     id="85"
     fill="none"
     d="M 96,672 L 144,672  L 144,720  L 96,720 z" />
  <path
     stroke-width="1.2"
     stroke="#000000"
     id="86"
     fill="none"
     d="M 144,720 L 192,720  L 192,768  L 144,768 z" />
  <path
     stroke-width="1.2"
     stroke="#000000"
     id="87"
     fill="none"
     d="M 144,672 L 192,672  L 192,720  L 144,720 z" />
  <path
     stroke-width="1.2"
     stroke="#000000"
     id="88"
     fill="none"
     d="M 192,720 L 240,720  L 240,768  L 192,768 z" />
  <path
     stroke-width="1.2"
     stroke="#000000"
     id="89"
     fill="none"
     d="M 192,672 L 240,672  L 240,720  L 192,720 z" />
  <path
     stroke-width="1.2"
     stroke="#000000"
     id="90"
     fill="none"
     d="M 288,768 L 528,768  L 528,792  L 288,792 z" />
  <path
     stroke-width="1.2"
     stroke="#000000"
     id="91"
     fill="none"
     d="M 288,720 L 336,720  L 336,768  L 288,768 z" />
  <path
     stroke-width="1.2"
     stroke="#000000"
     id="92"
     fill="none"
     d="M 288,672 L 336,672  L 336,720  L 288,720 z" />
  <path
     stroke-width="1.2"
     stroke="#000000"
     id="93"
     fill="none"
     d="M 336,720 L 384,720  L 384,768  L 336,768 z" />
  <path
     stroke-width="1.2"
     stroke="#000000"
     id="94"
     fill="none"
     d="M 336,672 L 384,672  L 384,720  L 336,720 z" />
  <path
     stroke-width="1.2"
     stroke="#000000"
     id="95"
     fill="none"
     d="M 384,720 L 432,720  L 432,768  L 384,768 z" />
  <path
     stroke-width="1.2"
     stroke="#000000"
     id="96"
     fill="none"
     d="M 384,672 L 432,672  L 432,720  L 384,720 z" />
  <path
     stroke-width="1.2"
     stroke="#000000"
     id="97"
     fill="none"
     d="M 432,720 L 480,720  L 480,768  L 432,768 z" />
  <path
     stroke-width="1.2"
     stroke="#000000"
     id="98"
     fill="none"
     d="M 432,672 L 480,672  L 480,720  L 432,720 z" />
  <path
     stroke-width="1.2"
     stroke="#000000"
     id="99"
     fill="none"
     d="M 480,720 L 528,720  L 528,768  L 480,768 z" />
  <path
     stroke-width="1.2"
     stroke="#000000"
     id="100"
     fill="none"
     d="M 480,672 L 528,672  L 528,720  L 480,720 z" />
  <path
     stroke-width="1.2"
     stroke="#000000"
     id="101"
     fill="none"
     d="M 0,552 L 240,552  L 240,576  L 0,576 z" />
  <path
     stroke-width="1.2"
     stroke="#000000"
     id="102"
     fill="none"
     d="M 0,504 L 48,504  L 48,552  L 0,552 z" />
  <path
     stroke-width="1.2"
     stroke="#000000"
     id="103"
     fill="none"
     d="M 0,456 L 48,456  L 48,504  L 0,504 z" />
  <path
     stroke-width="1.2"
     stroke="#000000"
     id="104"
     fill="none"
     d="M 48,504 L 96,504  L 96,552  L 48,552 z" />
  <path
     stroke-width="1.2"
     stroke="#000000"
     id="105"
     fill="none"
     d="M 48,456 L 96,456  L 96,504  L 48,504 z" />
  <path
     stroke-width="1.2"
     stroke="#000000"
     id="106"
     fill="none"
     d="M 96,504 L 144,504  L 144,552  L 96,552 z" />
  <path
     stroke-width="1.2"
     stroke="#000000"
     id="107"
     fill="none"
     d="M 96,456 L 144,456  L 144,504  L 96,504 z" />
  <path
     stroke-width="1.2"
     stroke="#000000"
     id="108"
     fill="none"
     d="M 144,504 L 192,504  L 192,552  L 144,552 z" />
  <path
     stroke-width="1.2"
     stroke="#000000"
     id="109"
     fill="none"
     d="M 144,456 L 192,456  L 192,504  L 144,504 z" />
  <path
     stroke-width="1.2"
     stroke="#000000"
     id="110"
     fill="none"
     d="M 192,504 L 240,504  L 240,552  L 192,552 z" />
  <path
     stroke-width="1.2"
     stroke="#000000"
     id="111"
     fill="none"
     d="M 192,456 L 240,456  L 240,504  L 192,504 z" />
  <path
     stroke-width="1.2"
     stroke="#000000"
     id="112"
     fill="none"
     d="M 288,552 L 528,552  L 528,576  L 288,576 z" />
  <path
     stroke-width="1.2"
     stroke="#000000"
     id="113"
     fill="none"
     d="M 288,504 L 336,504  L 336,552  L 288,552 z" />
  <path
     stroke-width="1.2"
     stroke="#000000"
     id="114"
     fill="none"
     d="M 288,456 L 336,456  L 336,504  L 288,504 z" />
  <path
     stroke-width="1.2"
     stroke="#000000"
     id="115"
     fill="none"
     d="M 336,504 L 384,504  L 384,552  L 336,552 z" />
  <path
     stroke-width="1.2"
     stroke="#000000"
     id="116"
     fill="none"
     d="M 336,456 L 384,456  L 384,504  L 336,504 z" />
  <path
     stroke-width="1.2"
     stroke="#000000"
     id="117"
     fill="none"
     d="M 384,504 L 432,504  L 432,552  L 384,552 z" />
  <path
     stroke-width="1.2"
     stroke="#000000"
     id="118"
     fill="none"
     d="M 384,456 L 432,456  L 432,504  L 384,504 z" />
  <path
     stroke-width="1.2"
     stroke="#000000"
     id="119"
     fill="none"
     d="M 432,504 L 480,504  L 480,552  L 432,552 z" />
  <path
     stroke-width="1.2"
     stroke="#000000"
     id="120"
     fill="none"
     d="M 432,456 L 480,456  L 480,504  L 432,504 z" />
  <path
     stroke-width="1.2"
     stroke="#000000"
     id="121"
     fill="none"
     d="M 480,504 L 528,504  L 528,552  L 480,552 z" />
  <path
     stroke-width="1.2"
     stroke="#000000"
     id="122"
     fill="none"
     d="M 480,456 L 528,456  L 528,504  L 480,504 z" />
  <path
     stroke-width="1.2"
     stroke="#000000"
     id="123"
     fill="none"
     d="M 0,432 L 240,432  L 240,456  L 0,456 z" />
  <path
     stroke-width="1.2"
     stroke="#000000"
     id="124"
     fill="none"
     d="M 0,384 L 48,384  L 48,432  L 0,432 z" />
  <path
     stroke-width="1.2"
     stroke="#000000"
     id="125"
     fill="none"
     d="M 0,336 L 48,336  L 48,384  L 0,384 z" />
  <path
     stroke-width="1.2"
     stroke="#000000"
     id="126"
     fill="none"
     d="M 48,384 L 96,384  L 96,432  L 48,432 z" />
  <path
     stroke-width="1.2"
     stroke="#000000"
     id="127"
     fill="none"
     d="M 48,336 L 96,336  L 96,384  L 48,384 z" />
  <path
     stroke-width="1.2"
     stroke="#000000"
     id="128"
     fill="none"
     d="M 96,384 L 144,384  L 144,432  L 96,432 z" />
  <path
     stroke-width="1.2"
     stroke="#000000"
     id="129"
     fill="none"
     d="M 96,336 L 144,336  L 144,384  L 96,384 z" />
  <path
     stroke-width="1.2"
     stroke="#000000"
     id="130"
     fill="none"
     d="M 144,384 L 192,384  L 192,432  L 144,432 z" />
  <path
     stroke-width="1.2"
     stroke="#000000"
     id="131"
     fill="none"
     d="M 144,336 L 192,336  L 192,384  L 144,384 z" />
  <path
     stroke-width="1.2"
     stroke="#000000"
     id="132"
     fill="none"
     d="M 192,384 L 240,384  L 240,432  L 192,432 z" />
  <path
     stroke-width="1.2"
     stroke="#000000"
     id="133"
     fill="none"
     d="M 192,336 L 240,336  L 240,384  L 192,384 z" />
  <path
     stroke-width="1.2"
     stroke="#000000"
     id="134"
     fill="none"
     d="M 288,432 L 528,432  L 528,456  L 288,456 z" />
  <path
     stroke-width="1.2"
     stroke="#000000"
     id="135"
     fill="none"
     d="M 288,384 L 336,384  L 336,432  L 288,432 z" />
  <path
     stroke-width="1.2"
     stroke="#000000"
     id="136"
     fill="none"
     d="M 288,336 L 336,336  L 336,384  L 288,384 z" />
  <path
     stroke-width="1.2"
     stroke="#000000"
     id="137"
     fill="none"
     d="M 336,384 L 384,384  L 384,432  L 336,432 z" />
  <path
     stroke-width="1.2"
     stroke="#000000"
     id="138"
     fill="none"
     d="M 336,336 L 384,336  L 384,384  L 336,384 z" />
  <path
     stroke-width="1.2"
     stroke="#000000"
     id="139"
     fill="none"
     d="M 384,384 L 432,384  L 432,432  L 384,432 z" />
  <path
     stroke-width="1.2"
     stroke="#000000"
     id="140"
     fill="none"
     d="M 384,336 L 432,336  L 432,384  L 384,384 z" />
  <path
     stroke-width="1.2"
     stroke="#000000"
     id="141"
     fill="none"
     d="M 432,384 L 480,384  L 480,432  L 432,432 z" />
  <path
     stroke-width="1.2"
     stroke="#000000"
     id="142"
     fill="none"
     d="M 432,336 L 480,336  L 480,384  L 432,384 z" />
  <path
     stroke-width="1.2"
     stroke="#000000"
     id="143"
     fill="none"
     d="M 480,384 L 528,384  L 528,432  L 480,432 z" />
  <path
     stroke-width="1.2"
     stroke="#000000"
     id="144"
     fill="none"
     d="M 480,336 L 528,336  L 528,384  L 480,384 z" />
  <path
     stroke-width="1.2"
     stroke="#000000"
     id="145"
     fill="none"
     d="M 0,312 L 240,312  L 240,336  L 0,336 z" />
  <path
     stroke-width="1.2"
     stroke="#000000"
     id="146"
     fill="none"
     d="M 0,264 L 48,264  L 48,312  L 0,312 z" />
  <path
     stroke-width="1.2"
     stroke="#000000"
     id="147"
     fill="none"
     d="M 0,216 L 48,216  L 48,264  L 0,264 z" />
  <path
     stroke-width="1.2"
     stroke="#000000"
     id="148"
     fill="none"
     d="M 48,264 L 96,264  L 96,312  L 48,312 z" />
  <path
     stroke-width="1.2"
     stroke="#000000"
     id="149"
     fill="none"
     d="M 48,216 L 96,216  L 96,264  L 48,264 z" />
  <path
     stroke-width="1.2"
     stroke="#000000"
     id="150"
     fill="none"
     d="M 96,264 L 144,264  L 144,312  L 96,312 z" />
  <path
     stroke-width="1.2"
     stroke="#000000"
     id="151"
     fill="none"
     d="M 96,216 L 144,216  L 144,264  L 96,264 z" />
  <path
     stroke-width="1.2"
     stroke="#000000"
     id="152"
     fill="none"
     d="M 144,264 L 192,264  L 192,312  L 144,312 z" />
  <path
     stroke-width="1.2"
     stroke="#000000"
     id="153"
     fill="none"
     d="M 144,216 L 192,216  L 192,264  L 144,264 z" />
  <path
     stroke-width="1.2"
     stroke="#000000"
     id="154"
     fill="none"
     d="M 192,264 L 240,264  L 240,312  L 192,312 z" />
  <path
     stroke-width="1.2"
     stroke="#000000"
     id="155"
     fill="none"
     d="M 192,216 L 240,216  L 240,264  L 192,264 z" />
  <path
     stroke-width="1.2"
     stroke="#000000"
     id="156"
     fill="none"
     d="M 288,312 L 528,312  L 528,336  L 288,336 z" />
  <path
     stroke-width="1.2"
     stroke="#000000"
     id="157"
     fill="none"
     d="M 288,264 L 336,264  L 336,312  L 288,312 z" />
  <path
     stroke-width="1.2"
     stroke="#000000"
     id="158"
     fill="none"
     d="M 288,216 L 336,216  L 336,264  L 288,264 z" />
  <path
     stroke-width="1.2"
     stroke="#000000"
     id="159"
     fill="none"
     d="M 336,264 L 384,264  L 384,312  L 336,312 z" />
  <path
     stroke-width="1.2"
     stroke="#000000"
     id="160"
     fill="none"
     d="M 336,216 L 384,216  L 384,264  L 336,264 z" />
  <path
     stroke-width="1.2"
     stroke="#000000"
     id="161"
     fill="none"
     d="M 384,264 L 432,264  L 432,312  L 384,312 z" />
  <path
     stroke-width="1.2"
     stroke="#000000"
     id="162"
     fill="none"
     d="M 384,216 L 432,216  L 432,264  L 384,264 z" />
  <path
     stroke-width="1.2"
     stroke="#000000"
     id="163"
     fill="none"
     d="M 432,264 L 480,264  L 480,312  L 432,312 z" />
  <path
     stroke-width="1.2"
     stroke="#000000"
     id="164"
     fill="none"
     d="M 432,216 L 480,216  L 480,264  L 432,264 z" />
  <path
     stroke-width="1.2"
     stroke="#000000"
     id="165"
     fill="none"
     d="M 480,264 L 528,264  L 528,312  L 480,312 z" />
  <path
     stroke-width="1.2"
     stroke="#000000"
     id="166"
     fill="none"
     d="M 480,216 L 528,216  L 528,264  L 480,264 z" />
  <path
     stroke-width="1.2"
     stroke="#000000"
     id="167"
     fill="none"
     d="M 0,192 L 240,192  L 240,216  L 0,216 z" />
  <path
     stroke-width="1.2"
     stroke="#000000"
     id="168"
     fill="none"
     d="M 0,144 L 48,144  L 48,192  L 0,192 z" />
  <path
     stroke-width="1.2"
     stroke="#000000"
     id="169"
     fill="none"
     d="M 0,96 L 48,96  L 48,144  L 0,144 z" />
  <path
     stroke-width="1.2"
     stroke="#000000"
     id="170"
     fill="none"
     d="M 48,144 L 96,144  L 96,192  L 48,192 z" />
  <path
     stroke-width="1.2"
     stroke="#000000"
     id="171"
     fill="none"
     d="M 48,96 L 96,96  L 96,144  L 48,144 z" />
  <path
     stroke-width="1.2"
     stroke="#000000"
     id="172"
     fill="none"
     d="M 96,144 L 144,144  L 144,192  L 96,192 z" />
  <path
     stroke-width="1.2"
     stroke="#000000"
     id="173"
     fill="none"
     d="M 96,96 L 144,96  L 144,144  L 96,144 z" />
  <path
     stroke-width="1.2"
     stroke="#000000"
     id="174"
     fill="none"
     d="M 144,144 L 192,144  L 192,192  L 144,192 z" />
  <path
     stroke-width="1.2"
     stroke="#000000"
     id="175"
     fill="none"
     d="M 144,96 L 192,96  L 192,144  L 144,144 z" />
  <path
     stroke-width="1.2"
     stroke="#000000"
     id="176"
     fill="none"
     d="M 192,144 L 240,144  L 240,192  L 192,192 z" />
  <path
     stroke-width="1.2"
     stroke="#000000"
     id="177"
     fill="none"
     d="M 192,96 L 240,96  L 240,144  L 192,144 z" />
  <path
     stroke-width="1.2"
     stroke="#000000"
     id="178"
     fill="none"
     d="M 288,192 L 528,192  L 528,216  L 288,216 z" />
  <path
     stroke-width="1.2"
     stroke="#000000"
     id="179"
     fill="none"
     d="M 288,144 L 336,144  L 336,192  L 288,192 z" />
  <path
     stroke-width="1.2"
     stroke="#000000"
     id="180"
     fill="none"
     d="M 288,96 L 336,96  L 336,144  L 288,144 z" />
  <path
     stroke-width="1.2"
     stroke="#000000"
     id="181"
     fill="none"
     d="M 336,144 L 384,144  L 384,192  L 336,192 z" />
  <path
     stroke-width="1.2"
     stroke="#000000"
     id="182"
     fill="none"
     d="M 336,96 L 384,96  L 384,144  L 336,144 z" />
  <path
     stroke-width="1.2"
     stroke="#000000"
     id="183"
     fill="none"
     d="M 384,144 L 432,144  L 432,192  L 384,192 z" />
  <path
     stroke-width="1.2"
     stroke="#000000"
     id="184"
     fill="none"
     d="M 384,96 L 432,96  L 432,144  L 384,144 z" />
  <path
     stroke-width="1.2"
     stroke="#000000"
     id="185"
     fill="none"
     d="M 432,144 L 480,144  L 480,192  L 432,192 z" />
  <path
     stroke-width="1.2"
     stroke="#000000"
     id="186"
     fill="none"
     d="M 432,96 L 480,96  L 480,144  L 432,144 z" />
  <path
     stroke-width="1.2"
     stroke="#000000"
     id="187"
     fill="none"
     d="M 480,144 L 528,144  L 528,192  L 480,192 z" />
  <path
     stroke-width="1.2"
     stroke="#000000"
     id="188"
     fill="none"
     d="M 480,96 L 528,96  L 528,144  L 480,144 z" />
  <path
     stroke-width="1.2"
     stroke="#000000"
     id="189"
     fill="none"
     d="M 0,624 L 576,624  L 576,672  L 0,672 z" />
  <path
     stroke-width="1.2"
     stroke="#000000"
     id="190"
     fill="none"
     d="M 0,48 L 576,48  L 576,96  L 0,96 z" />
  <path
     stroke-width="1.2"
     stroke="#000000"
     id="191"
     fill="none"
     d="M 240,96 L 288,96  L 288,576  L 240,576 z" />
  <path
     stroke-width="1.2"
     stroke="#000000"
     id="192"
     fill="none"
     d="M 528,96 L 576,96  L 576,576  L 528,576 z" />
  <path
     stroke-width="1.2"
     stroke="#000000"
     id="193"
     fill="none"
     d="M 240,672 L 288,672  L 288,1152  L 240,1152 z" />
  <path
     stroke-width="1.2"
     stroke="#000000"
     id="194"
     fill="none"
     d="M 528,672 L 576,672  L 576,1152  L 528,1152 z" />
  <path
     stroke-width="1.2"
     stroke="#000000"
     id="195"
     fill="none"
     d="M 624,0 L 1200,0  L 1200,276  L 624,276 z" />
  <path
     stroke-width="1.2"
     stroke="#000000"
     id="196"
     fill="none"
     d="M 912,912 L 1200,912  L 1200,1200  L 912,1200 z" />
  <path
     stroke-width="1.2"
     stroke="#000000"
     id="197"
     fill="none"
     d="M 624,912 L 912,912  L 912,1200  L 624,1200 z" />
  <path
     stroke-width="1.2"
     stroke="#000000"
     id="198"
     fill="none"
     d="M 624,276 L 1200,276  L 1200,324  L 624,324 z" />
  <path
     stroke-width="1.2"
     stroke="#000000"
     id="199"
     fill="none"
     d="M 624,324 L 720,324  L 720,576  L 624,576 z" />
  <path
     stroke-width="1.2"
     stroke="#000000"
     id="200"
     fill="none"
     d="M 720,324 L 816,324  L 816,576  L 720,576 z" />
  <path
     stroke-width="1.2"
     stroke="#000000"
     id="201"
     fill="none"
     d="M 816,324 L 912,324  L 912,576  L 816,576 z" />
  <path
     stroke-width="1.2"
     stroke="#000000"
     id="202"
     fill="none"
     d="M 912,324 L 1008,324  L 1008,576  L 912,576 z" />
  <path
     stroke-width="1.2"
     stroke="#000000"
     id="203"
     fill="none"
     d="M 1008,324 L 1104,324  L 1104,576  L 1008,576 z" />
  <path
     stroke-width="1.2"
     stroke="#000000"
     id="204"
     fill="none"
     d="M 1104,324 L 1200,324  L 1200,576  L 1104,576 z" />
  <path
     stroke-width="1.2"
     stroke="#000000"
     id="205"
     fill="none"
     d="M 624,576 L 1200,576  L 1200,624  L 624,624 z" />
  <path
     stroke-width="1.2"
     stroke="#000000"
     id="206"
     fill="none"
     d="M 624,624 L 720,624  L 720,876  L 624,876 z" />
  <path
     stroke-width="1.2"
     stroke="#000000"
     id="207"
     fill="none"
     d="M 720,624 L 816,624  L 816,876  L 720,876 z" />
  <path
     stroke-width="1.2"
     stroke="#000000"
     id="208"
     fill="none"
     d="M 816,624 L 912,624  L 912,876  L 816,876 z" />
  <path
     stroke-width="1.2"
     stroke="#000000"
     id="209"
     fill="none"
     d="M 912,624 L 1008,624  L 1008,876  L 912,876 z" />
  <path
     stroke-width="1.2"
     stroke="#000000"
     id="210"
     fill="none"
     d="M 1008,624 L 1104,624  L 1104,876  L 1008,876 z" />
  <path
     stroke-width="1.2"
     stroke="#000000"
     id="211"
     fill="none"
     d="M 1104,624 L 1200,624  L 1200,876  L 1104,876 z" />
  <path
     stroke-width="1.2"
     stroke="#000000"
     id="212"
     fill="none"
     d="M 576,0 L 624,0  L 624,1200  L 576,1200 z" />
  <path
     stroke-width="1.2"
     stroke="#000000"
     id="213"
     fill="none"
     d="M 0,576 L 576,576  L 576,624  L 0,624 z" />
  <path
     stroke-width="1.2"
     stroke="#000000"
     id="214"
     fill="none"
     d="M 624,876 L 1200,876  L 1200,912  L 624,912 z" />
  <path
     d="m 0.01283092,585.92041 4.25e-6,30.36731"/>
</svg>
