<?xml version="1.0" encoding="UTF-8" standalone="no"?>
<svg 
	xmlns:rdf="http://www.w3.org/1999/02/22-rdf-syntax-ns#" 
	xmlns:svg="http://www.w3.org/2000/svg" 
	xmlns="http://www.w3.org/2000/svg" 
	id="svg224" 
	viewBox="-120.6 -120.6 1441.2 1441.2" 
	version="1.1" 
	height="600px"
	>
	<defs id="defs228"/>
	<path id="1" d="M 0,1152 L 96,1152  L 96,1200  L 0,1200 z"/>
	<path id="2" d="M 0,0 L 96,0  L 96,48  L 0,48 z"/>
	<path id="3" d="M 96,1152 L 192,1152  L 192,1200  L 96,1200 z"/>
	<path id="4" d="M 96,0 L 192,0  L 192,48  L 96,48 z"/>
	<path id="5" d="M 192,1152 L 288,1152  L 288,1200  L 192,1200 z"/>
	<path id="6" d="M 192,0 L 288,0  L 288,48  L 192,48 z"/>
	<path id="7" d="M 288,1152 L 384,1152  L 384,1200  L 288,1200 z"/>
	<path id="8" d="M 288,0 L 384,0  L 384,48  L 288,48 z"/>
	<path id="9" d="M 384,1152 L 480,1152  L 480,1200  L 384,1200 z"/>
	<path id="10" d="M 384,0 L 480,0  L 480,48  L 384,48 z"/>
	<path id="11" d="M 480,1152 L 576,1152  L 576,1200  L 480,1200 z"/>
	<path id="12" d="M 480,0 L 576,0  L 576,48  L 480,48 z"/>
	<path id="13" d="M 0,1128 L 240,1128  L 240,1152  L 0,1152 z"/>
	<path id="14" d="M 0,1080 L 48,1080  L 48,1128  L 0,1128 z"/>
	<path id="15" d="M 0,1032 L 48,1032  L 48,1080  L 0,1080 z"/>
	<path id="16" d="M 48,1080 L 96,1080  L 96,1128  L 48,1128 z"/>
	<path id="17" d="M 48,1032 L 96,1032  L 96,1080  L 48,1080 z"/>
	<path id="18" d="M 96,1080 L 144,1080  L 144,1128  L 96,1128 z"/>
	<path id="19" d="M 96,1032 L 144,1032  L 144,1080  L 96,1080 z"/>
	<path id="20" d="M 144,1080 L 192,1080  L 192,1128  L 144,1128 z"/>
	<path id="21" d="M 144,1032 L 192,1032  L 192,1080  L 144,1080 z"/>
	<path id="22" d="M 192,1080 L 240,1080  L 240,1128  L 192,1128 z"/>
	<path id="23" d="M 192,1032 L 240,1032  L 240,1080  L 192,1080 z"/>
	<path id="24" d="M 288,1128 L 528,1128  L 528,1152  L 288,1152 z"/>
	<path id="25" d="M 288,1080 L 336,1080  L 336,1128  L 288,1128 z"/>
	<path id="26" d="M 288,1032 L 336,1032  L 336,1080  L 288,1080 z"/>
	<path id="27" d="M 336,1080 L 384,1080  L 384,1128  L 336,1128 z"/>
	<path id="28" d="M 336,1032 L 384,1032  L 384,1080  L 336,1080 z"/>
	<path id="29" d="M 384,1080 L 432,1080  L 432,1128  L 384,1128 z"/>
	<path id="30" d="M 384,1032 L 432,1032  L 432,1080  L 384,1080 z"/>
	<path id="31" d="M 432,1080 L 480,1080  L 480,1128  L 432,1128 z"/>
	<path id="32" d="M 432,1032 L 480,1032  L 480,1080  L 432,1080 z"/>
	<path id="33" d="M 480,1080 L 528,1080  L 528,1128  L 480,1128 z"/>
	<path id="34" d="M 480,1032 L 528,1032  L 528,1080  L 480,1080 z"/>
	<path id="35" d="M 0,1008 L 240,1008  L 240,1032  L 0,1032 z"/>
	<path id="36" d="M 0,960 L 48,960  L 48,1008  L 0,1008 z"/>
	<path id="37" d="M 0,912 L 48,912  L 48,960  L 0,960 z"/>
	<path id="38" d="M 48,960 L 96,960  L 96,1008  L 48,1008 z"/>
	<path id="39" d="M 48,912 L 96,912  L 96,960  L 48,960 z"/>
	<path id="40" d="M 96,960 L 144,960  L 144,1008  L 96,1008 z"/>
	<path id="41" d="M 96,912 L 144,912  L 144,960  L 96,960 z"/>
	<path id="42" d="M 144,960 L 192,960  L 192,1008  L 144,1008 z"/>
	<path id="43" d="M 144,912 L 192,912  L 192,960  L 144,960 z"/>
	<path id="44" d="M 192,960 L 240,960  L 240,1008  L 192,1008 z"/>
	<path id="45" d="M 192,912 L 240,912  L 240,960  L 192,960 z"/>
	<path id="46" d="M 288,1008 L 528,1008  L 528,1032  L 288,1032 z"/>
	<path id="47" d="M 288,960 L 336,960  L 336,1008  L 288,1008 z"/>
	<path id="48" d="M 288,912 L 336,912  L 336,960  L 288,960 z"/>
	<path id="49" d="M 336,960 L 384,960  L 384,1008  L 336,1008 z"/>
	<path id="50" d="M 336,912 L 384,912  L 384,960  L 336,960 z"/>
	<path id="51" d="M 384,960 L 432,960  L 432,1008  L 384,1008 z"/>
	<path id="52" d="M 384,912 L 432,912  L 432,960  L 384,960 z"/>
	<path id="53" d="M 432,960 L 480,960  L 480,1008  L 432,1008 z"/>
	<path id="54" d="M 432,912 L 480,912  L 480,960  L 432,960 z"/>
	<path id="55" d="M 480,960 L 528,960  L 528,1008  L 480,1008 z"/>
	<path id="56" d="M 480,912 L 528,912  L 528,960  L 480,960 z"/>
	<path id="57" d="M 0,888 L 240,888  L 240,912  L 0,912 z"/>
	<path id="58" d="M 0,840 L 48,840  L 48,888  L 0,888 z"/>
	<path id="59" d="M 0,792 L 48,792  L 48,840  L 0,840 z"/>
	<path id="60" d="M 48,840 L 96,840  L 96,888  L 48,888 z"/>
	<path id="61" d="M 48,792 L 96,792  L 96,840  L 48,840 z"/>
	<path id="62" d="M 96,840 L 144,840  L 144,888  L 96,888 z"/>
	<path id="63" d="M 96,792 L 144,792  L 144,840  L 96,840 z"/>
	<path id="64" d="M 144,840 L 192,840  L 192,888  L 144,888 z"/>
	<path id="65" d="M 144,792 L 192,792  L 192,840  L 144,840 z"/>
	<path id="66" d="M 192,840 L 240,840  L 240,888  L 192,888 z"/>
	<path id="67" d="M 192,792 L 240,792  L 240,840  L 192,840 z"/>
	<path id="68" d="M 288,888 L 528,888  L 528,912  L 288,912 z"/>
	<path id="69" d="M 288,840 L 336,840  L 336,888  L 288,888 z"/>
	<path id="70" d="M 288,792 L 336,792  L 336,840  L 288,840 z"/>
	<path id="71" d="M 336,840 L 384,840  L 384,888  L 336,888 z"/>
	<path id="72" d="M 336,792 L 384,792  L 384,840  L 336,840 z"/>
	<path id="73" d="M 384,840 L 432,840  L 432,888  L 384,888 z"/>
	<path id="74" d="M 384,792 L 432,792  L 432,840  L 384,840 z"/>
	<path id="75" d="M 432,840 L 480,840  L 480,888  L 432,888 z"/>
	<path id="76" d="M 432,792 L 480,792  L 480,840  L 432,840 z"/>
	<path id="77" d="M 480,840 L 528,840  L 528,888  L 480,888 z"/>
	<path id="78" d="M 480,792 L 528,792  L 528,840  L 480,840 z"/>
	<path id="79" d="M 0,768 L 240,768  L 240,792  L 0,792 z"/>
	<path id="80" d="M 0,720 L 48,720  L 48,768  L 0,768 z"/>
	<path id="81" d="M 0,672 L 48,672  L 48,720  L 0,720 z"/>
	<path id="82" d="M 48,720 L 96,720  L 96,768  L 48,768 z"/>
	<path id="83" d="M 48,672 L 96,672  L 96,720  L 48,720 z"/>
	<path id="84" d="M 96,720 L 144,720  L 144,768  L 96,768 z"/>
	<path id="85" d="M 96,672 L 144,672  L 144,720  L 96,720 z"/>
	<path id="86" d="M 144,720 L 192,720  L 192,768  L 144,768 z"/>
	<path id="87" d="M 144,672 L 192,672  L 192,720  L 144,720 z"/>
	<path id="88" d="M 192,720 L 240,720  L 240,768  L 192,768 z"/>
	<path id="89" d="M 192,672 L 240,672  L 240,720  L 192,720 z"/>
	<path id="90" d="M 288,768 L 528,768  L 528,792  L 288,792 z"/>
	<path id="91" d="M 288,720 L 336,720  L 336,768  L 288,768 z"/>
	<path id="92" d="M 288,672 L 336,672  L 336,720  L 288,720 z"/>
	<path id="93" d="M 336,720 L 384,720  L 384,768  L 336,768 z"/>
	<path id="94" d="M 336,672 L 384,672  L 384,720  L 336,720 z"/>
	<path id="95" d="M 384,720 L 432,720  L 432,768  L 384,768 z"/>
	<path id="96" d="M 384,672 L 432,672  L 432,720  L 384,720 z"/>
	<path id="97" d="M 432,720 L 480,720  L 480,768  L 432,768 z"/>
	<path id="98" d="M 432,672 L 480,672  L 480,720  L 432,720 z"/>
	<path id="99" d="M 480,720 L 528,720  L 528,768  L 480,768 z"/>
	<path id="100" d="M 480,672 L 528,672  L 528,720  L 480,720 z"/>
	<path id="101" d="M 0,552 L 240,552  L 240,576  L 0,576 z"/>
	<path id="102" d="M 0,504 L 48,504  L 48,552  L 0,552 z"/>
	<path id="103" d="M 0,456 L 48,456  L 48,504  L 0,504 z"/>
	<path id="104" d="M 48,504 L 96,504  L 96,552  L 48,552 z"/>
	<path id="105" d="M 48,456 L 96,456  L 96,504  L 48,504 z"/>
	<path id="106" d="M 96,504 L 144,504  L 144,552  L 96,552 z"/>
	<path id="107" d="M 96,456 L 144,456  L 144,504  L 96,504 z"/>
	<path id="108" d="M 144,504 L 192,504  L 192,552  L 144,552 z"/>
	<path id="109" d="M 144,456 L 192,456  L 192,504  L 144,504 z"/>
	<path id="110" d="M 192,504 L 240,504  L 240,552  L 192,552 z"/>
	<path id="111" d="M 192,456 L 240,456  L 240,504  L 192,504 z"/>
	<path id="112" d="M 288,552 L 528,552  L 528,576  L 288,576 z"/>
	<path id="113" d="M 288,504 L 336,504  L 336,552  L 288,552 z"/>
	<path id="114" d="M 288,456 L 336,456  L 336,504  L 288,504 z"/>
	<path id="115" d="M 336,504 L 384,504  L 384,552  L 336,552 z"/>
	<path id="116" d="M 336,456 L 384,456  L 384,504  L 336,504 z"/>
	<path id="117" d="M 384,504 L 432,504  L 432,552  L 384,552 z"/>
	<path id="118" d="M 384,456 L 432,456  L 432,504  L 384,504 z"/>
	<path id="119" d="M 432,504 L 480,504  L 480,552  L 432,552 z"/>
	<path id="120" d="M 432,456 L 480,456  L 480,504  L 432,504 z"/>
	<path id="121" d="M 480,504 L 528,504  L 528,552  L 480,552 z"/>
	<path id="122" d="M 480,456 L 528,456  L 528,504  L 480,504 z"/>
	<path id="123" d="M 0,432 L 240,432  L 240,456  L 0,456 z"/>
	<path id="124" d="M 0,384 L 48,384  L 48,432  L 0,432 z"/>
	<path id="125" d="M 0,336 L 48,336  L 48,384  L 0,384 z"/>
	<path id="126" d="M 48,384 L 96,384  L 96,432  L 48,432 z"/>
	<path id="127" d="M 48,336 L 96,336  L 96,384  L 48,384 z"/>
	<path id="128" d="M 96,384 L 144,384  L 144,432  L 96,432 z"/>
	<path id="129" d="M 96,336 L 144,336  L 144,384  L 96,384 z"/>
	<path id="130" d="M 144,384 L 192,384  L 192,432  L 144,432 z"/>
	<path id="131" d="M 144,336 L 192,336  L 192,384  L 144,384 z"/>
	<path id="132" d="M 192,384 L 240,384  L 240,432  L 192,432 z"/>
	<path id="133" d="M 192,336 L 240,336  L 240,384  L 192,384 z"/>
	<path id="134" d="M 288,432 L 528,432  L 528,456  L 288,456 z"/>
	<path id="135" d="M 288,384 L 336,384  L 336,432  L 288,432 z"/>
	<path id="136" d="M 288,336 L 336,336  L 336,384  L 288,384 z"/>
	<path id="137" d="M 336,384 L 384,384  L 384,432  L 336,432 z"/>
	<path id="138" d="M 336,336 L 384,336  L 384,384  L 336,384 z"/>
	<path id="139" d="M 384,384 L 432,384  L 432,432  L 384,432 z"/>
	<path id="140" d="M 384,336 L 432,336  L 432,384  L 384,384 z"/>
	<path id="141" d="M 432,384 L 480,384  L 480,432  L 432,432 z"/>
	<path id="142" d="M 432,336 L 480,336  L 480,384  L 432,384 z"/>
	<path id="143" d="M 480,384 L 528,384  L 528,432  L 480,432 z"/>
	<path id="144" d="M 480,336 L 528,336  L 528,384  L 480,384 z"/>
	<path id="145" d="M 0,312 L 240,312  L 240,336  L 0,336 z"/>
	<path id="146" d="M 0,264 L 48,264  L 48,312  L 0,312 z"/>
	<path id="147" d="M 0,216 L 48,216  L 48,264  L 0,264 z"/>
	<path id="148" d="M 48,264 L 96,264  L 96,312  L 48,312 z"/>
	<path id="149" d="M 48,216 L 96,216  L 96,264  L 48,264 z"/>
	<path id="150" d="M 96,264 L 144,264  L 144,312  L 96,312 z"/>
	<path id="151" d="M 96,216 L 144,216  L 144,264  L 96,264 z"/>
	<path id="152" d="M 144,264 L 192,264  L 192,312  L 144,312 z"/>
	<path id="153" d="M 144,216 L 192,216  L 192,264  L 144,264 z"/>
	<path id="154" d="M 192,264 L 240,264  L 240,312  L 192,312 z"/>
	<path id="155" d="M 192,216 L 240,216  L 240,264  L 192,264 z"/>
	<path id="156" d="M 288,312 L 528,312  L 528,336  L 288,336 z"/>
	<path id="157" d="M 288,264 L 336,264  L 336,312  L 288,312 z"/>
	<path id="158" d="M 288,216 L 336,216  L 336,264  L 288,264 z"/>
	<path id="159" d="M 336,264 L 384,264  L 384,312  L 336,312 z"/>
	<path id="160" d="M 336,216 L 384,216  L 384,264  L 336,264 z"/>
	<path id="161" d="M 384,264 L 432,264  L 432,312  L 384,312 z"/>
	<path id="162" d="M 384,216 L 432,216  L 432,264  L 384,264 z"/>
	<path id="163" d="M 432,264 L 480,264  L 480,312  L 432,312 z"/>
	<path id="164" d="M 432,216 L 480,216  L 480,264  L 432,264 z"/>
	<path id="165" d="M 480,264 L 528,264  L 528,312  L 480,312 z"/>
	<path id="166" d="M 480,216 L 528,216  L 528,264  L 480,264 z"/>
	<path id="167" d="M 0,192 L 240,192  L 240,216  L 0,216 z"/>
	<path id="168" d="M 0,144 L 48,144  L 48,192  L 0,192 z"/>
	<path id="169" d="M 0,96 L 48,96  L 48,144  L 0,144 z"/>
	<path id="170" d="M 48,144 L 96,144  L 96,192  L 48,192 z"/>
	<path id="171" d="M 48,96 L 96,96  L 96,144  L 48,144 z"/>
	<path id="172" d="M 96,144 L 144,144  L 144,192  L 96,192 z"/>
	<path id="173" d="M 96,96 L 144,96  L 144,144  L 96,144 z"/>
	<path id="174" d="M 144,144 L 192,144  L 192,192  L 144,192 z"/>
	<path id="175" d="M 144,96 L 192,96  L 192,144  L 144,144 z"/>
	<path id="176" d="M 192,144 L 240,144  L 240,192  L 192,192 z"/>
	<path id="177" d="M 192,96 L 240,96  L 240,144  L 192,144 z"/>
	<path id="178" d="M 288,192 L 528,192  L 528,216  L 288,216 z"/>
	<path id="179" d="M 288,144 L 336,144  L 336,192  L 288,192 z"/>
	<path id="180" d="M 288,96 L 336,96  L 336,144  L 288,144 z"/>
	<path id="181" d="M 336,144 L 384,144  L 384,192  L 336,192 z"/>
	<path id="182" d="M 336,96 L 384,96  L 384,144  L 336,144 z"/>
	<path id="183" d="M 384,144 L 432,144  L 432,192  L 384,192 z"/>
	<path id="184" d="M 384,96 L 432,96  L 432,144  L 384,144 z"/>
	<path id="185" d="M 432,144 L 480,144  L 480,192  L 432,192 z"/>
	<path id="186" d="M 432,96 L 480,96  L 480,144  L 432,144 z"/>
	<path id="187" d="M 480,144 L 528,144  L 528,192  L 480,192 z"/>
	<path id="188" d="M 480,96 L 528,96  L 528,144  L 480,144 z"/>
	<path id="189" d="M 0,624 L 576,624  L 576,672  L 0,672 z"/>
	<path id="190" d="M 0,48 L 576,48  L 576,96  L 0,96 z"/>
	<path id="191" d="M 240,96 L 288,96  L 288,576  L 240,576 z"/>
	<path id="192" d="M 528,96 L 576,96  L 576,576  L 528,576 z"/>
	<path id="193" d="M 240,672 L 288,672  L 288,1152  L 240,1152 z"/>
	<path id="194" d="M 528,672 L 576,672  L 576,1152  L 528,1152 z"/>
	<path id="195" d="M 624,0 L 1200,0  L 1200,276  L 624,276 z"/>
	<path id="196" d="M 912,912 L 1200,912  L 1200,1200  L 912,1200 z"/>
	<path id="197" d="M 624,912 L 912,912  L 912,1200  L 624,1200 z"/>
	<path id="198" d="M 624,276 L 1200,276  L 1200,324  L 624,324 z"/>
	<path id="199" d="M 624,324 L 720,324  L 720,576  L 624,576 z"/>
	<path id="200" d="M 720,324 L 816,324  L 816,576  L 720,576 z"/>
	<path id="201" d="M 816,324 L 912,324  L 912,576  L 816,576 z"/>
	<path id="202" d="M 912,324 L 1008,324  L 1008,576  L 912,576 z"/>
	<path id="203" d="M 1008,324 L 1104,324  L 1104,576  L 1008,576 z"/>
	<path id="204" d="M 1104,324 L 1200,324  L 1200,576  L 1104,576 z"/>
	<path id="205" d="M 624,576 L 1200,576  L 1200,624  L 624,624 z"/>
	<path id="206" d="M 624,624 L 720,624  L 720,876  L 624,876 z"/>
	<path id="207" d="M 720,624 L 816,624  L 816,876  L 720,876 z"/>
	<path id="208" d="M 816,624 L 912,624  L 912,876  L 816,876 z"/>
	<path id="209" d="M 912,624 L 1008,624  L 1008,876  L 912,876 z"/>
	<path id="210" d="M 1008,624 L 1104,624  L 1104,876  L 1008,876 z"/>
	<path id="211" d="M 1104,624 L 1200,624  L 1200,876  L 1104,876 z"/>
	<path id="212" d="M 576,0 L 624,0  L 624,1200  L 576,1200 z"/>
	<path id="213" d="M 0,576 L 576,576  L 576,624  L 0,624 z"/>
	<path id="214" d="M 624,876 L 1200,876  L 1200,912  L 624,912 z"/>
	<path d="m 0.01283092,585.92041 4.25e-6,30.36731"/>
</svg>
